<svg width="184" height="32" viewBox="0 0 184 32" fill="none" xmlns="http://www.w3.org/2000/svg">
<g opacity="0.87">
<path d="M51.7318 22.8277C54.4076 22.8277 56.2413 21.3307 56.2413 19.1976C56.2413 17.4948 55.3806 16.3347 52.4615 15.4365L51.2078 15.0436C48.9437 14.3512 48.1017 13.7337 48.1017 12.7046C48.1017 11.4883 49.2057 10.7585 51.0581 10.7585C53.079 10.7585 54.183 11.8251 54.7444 12.9104L55.6238 11.9748C55.0999 10.8334 53.4345 9.42999 51.0768 9.42999C48.4385 9.42999 46.7918 10.7585 46.7918 12.6859C46.7918 14.3886 47.8023 15.3991 50.8336 16.3534L52.2183 16.8025C53.9398 17.3638 54.9315 18.1497 54.9315 19.2537C54.9315 20.5074 53.8088 21.4991 51.6195 21.4991C49.7109 21.4991 47.9707 20.4326 47.1661 18.7485L46.2305 19.6654C47.1474 21.5366 49.4863 22.8277 51.7318 22.8277Z" fill="white"/>
<path d="M62.3392 22.678H63.7613L65.4641 18.7298H72.6494L74.3522 22.678H75.7743L70.0859 9.57969H68.0276L62.3392 22.678ZM65.9506 17.5697L68.8696 10.796H69.2439L72.1629 17.5697H65.9506Z" fill="white"/>
<path d="M84.1701 22.678H85.4799V10.7585H89.8398V9.5984H79.7541V10.7585H84.1701V22.678Z" fill="white"/>
<path d="M96.1276 22.678H105.353V21.5179H97.4374V15.8669H104.267V14.7067H97.4374V10.7211H105.165V9.56098H96.1276V22.678Z" fill="white"/>
<path d="M112.281 22.678H121.057V21.5179H113.591V9.57969H112.281V22.678Z" fill="white"/>
<path d="M127.759 22.678H136.535V21.5179H129.068V9.57969H127.759V22.678Z" fill="white"/>
<path d="M142.831 22.678H151.663V21.5179H147.921V10.7398H151.663V9.57969H142.831V10.7398H146.611V21.5179H142.831V22.678Z" fill="white"/>
<path d="M161.832 22.678H163.141V10.7585H167.501V9.5984H157.416V10.7585H161.832V22.678Z" fill="white"/>
<path d="M173.789 22.678H183.014V21.5179H175.099V15.8669H181.929V14.7067H175.099V10.7211H182.827V9.56098H173.789V22.678Z" fill="white"/>
</g>
<path d="M11.1882 21.4229C9.99044 20.2253 9.10751 18.7501 8.61802 17.1286C8.12853 15.5071 8.04767 13.7897 8.38266 12.1294C8.71765 10.4691 9.45807 8.91746 10.538 7.61262C11.6179 6.30779 13.0038 5.2903 14.5722 4.6508C16.1406 4.0113 17.8428 3.76963 19.5272 3.94732C21.2116 4.12501 22.8259 4.71655 24.2263 5.66925C25.6267 6.62194 26.7698 7.90621 27.5537 9.40766C28.3375 10.9091 28.7379 12.5811 28.7191 14.2748H28.7287C28.7095 11.1954 27.7012 8.20373 25.8525 5.74096C24.0038 3.2782 21.4126 1.47472 18.461 0.596518C15.5095 -0.281686 12.3538 -0.188126 9.4595 0.8634C6.56516 1.91493 4.08536 3.86875 2.38581 6.43672C0.686273 9.00468 -0.143034 12.0508 0.0202034 15.1259C0.18344 18.201 1.33058 21.1423 3.29244 23.5159C5.25429 25.8895 7.92701 27.5698 10.9164 28.309C13.9058 29.0482 17.0536 28.8072 19.8956 27.6214C19.2563 26.6545 18.8179 25.5689 18.6065 24.4292C17.2315 24.452 15.8659 24.1976 14.5914 23.681C13.3168 23.1645 12.1594 22.3965 11.1882 21.4229Z" fill="white"/>
<path d="M28.7286 14.2764C28.7444 17.1257 27.9131 19.9153 26.3404 22.2913C24.7677 24.6672 22.5245 26.5223 19.8955 27.6209C20.6869 28.823 21.7641 29.81 23.0306 30.4935C24.2971 31.177 25.7134 31.5357 27.1525 31.5375C28.5917 31.5393 30.0089 31.1841 31.2771 30.5037C32.5452 29.8233 33.6249 28.839 34.4193 27.6389C35.2136 26.4388 35.6979 25.0605 35.8288 23.6272C35.9597 22.194 35.733 20.7507 35.1691 19.4266C34.6052 18.1025 33.7217 16.9389 32.5977 16.0401C31.4737 15.1413 30.1443 14.5353 28.7286 14.2764Z" fill="white"/>
<path d="M18.459 22.834C18.459 23.3691 18.5081 23.9031 18.6056 24.4292C21.2818 24.3889 23.8366 23.3052 25.7255 21.409C27.6144 19.5127 28.6883 16.9538 28.7182 14.2774C27.4644 14.05 26.176 14.1006 24.9439 14.4255C23.7119 14.7505 22.5661 15.3421 21.5877 16.1583C20.6092 16.9746 19.8219 17.9957 19.2813 19.1496C18.7407 20.3034 18.46 21.5619 18.459 22.8361V22.834Z" fill="white"/>
</svg>
